<?xml version="1.0" encoding="UTF-8" standalone="no"?>
<!-- Created with Inkscape (http://www.inkscape.org/) -->

<svg
   xmlns:dc="http://purl.org/dc/elements/1.1/"
   xmlns:cc="http://creativecommons.org/ns#"
   xmlns:rdf="http://www.w3.org/1999/02/22-rdf-syntax-ns#"
   xmlns:svg="http://www.w3.org/2000/svg"
   xmlns="http://www.w3.org/2000/svg"
   xmlns:sodipodi="http://sodipodi.sourceforge.net/DTD/sodipodi-0.dtd"
   xmlns:inkscape="http://www.inkscape.org/namespaces/inkscape"
   id="svg2"
   version="1.1"
   inkscape:version="0.48.4 r9939"
   width="545"
   height="320"
   xml:space="preserve"
   sodipodi:docname="arch.eps"><metadata
     id="metadata8"><rdf:RDF><cc:Work
         rdf:about=""><dc:format>image/svg+xml</dc:format><dc:type
           rdf:resource="http://purl.org/dc/dcmitype/StillImage" /><dc:title></dc:title></cc:Work></rdf:RDF></metadata><defs
     id="defs6" /><sodipodi:namedview
     pagecolor="#ffffff"
     bordercolor="#666666"
     borderopacity="1"
     objecttolerance="10"
     gridtolerance="10"
     guidetolerance="10"
     inkscape:pageopacity="0"
     inkscape:pageshadow="2"
     inkscape:window-width="901"
     inkscape:window-height="666"
     id="namedview4"
     showgrid="false"
     inkscape:zoom="0.9367543"
     inkscape:cx="303.48457"
     inkscape:cy="203.17418"
     inkscape:window-x="2621"
     inkscape:window-y="170"
     inkscape:window-maximized="0"
     inkscape:current-layer="g10" /><g
     id="g10"
     inkscape:groupmode="layer"
     inkscape:label="ink_ext_XXXXXX"
     transform="matrix(1.25,0,0,-1.25,0,320)"><g
       id="g12"
       transform="scale(0.1,0.1)"><g
         id="g14"
         transform="scale(10,10)"><text
           transform="scale(1,-1)"
           id="text16"
           x="299.44803"
           y="-246.20007"><tspan
             style="font-size:8px;font-variant:normal;font-weight:normal;text-align:center;writing-mode:lr-tb;text-anchor:middle;fill:#000000;fill-opacity:1;fill-rule:nonzero;stroke:none;font-family:Times;-inkscape-font-specification:Times-Roman"
             sodipodi:role="line"
             id="tspan18"
             x="299.44803"
             y="-246.20007">다음에</tspan><tspan
             style="font-size:8px;font-variant:normal;font-weight:normal;text-align:center;writing-mode:lr-tb;text-anchor:middle;fill:#000000;fill-opacity:1;fill-rule:nonzero;stroke:none;font-family:Times;-inkscape-font-specification:Times-Roman"
             sodipodi:role="line"
             x="299.44803"
             y="-236.20007"
             id="tspan3112">무엇을</tspan><tspan
             style="font-size:8px;font-variant:normal;font-weight:normal;text-align:center;writing-mode:lr-tb;text-anchor:middle;fill:#000000;fill-opacity:1;fill-rule:nonzero;stroke:none;font-family:Times;-inkscape-font-specification:Times-Roman"
             sodipodi:role="line"
             x="299.44803"
             y="-226.20007"
             id="tspan3114">실행할까?</tspan><tspan
             style="font-size:8px;font-variant:normal;font-weight:normal;text-align:center;writing-mode:lr-tb;text-anchor:middle;fill:#000000;fill-opacity:1;fill-rule:nonzero;stroke:none;font-family:Times;-inkscape-font-specification:Times-Roman"
             sodipodi:role="line"
             id="tspan20"
             x="299.44803"
             y="-215.87152" /><tspan
             style="font-size:8px;font-variant:normal;font-weight:normal;text-align:center;writing-mode:lr-tb;text-anchor:middle;fill:#000000;fill-opacity:1;fill-rule:nonzero;stroke:none;font-family:Times;-inkscape-font-specification:Times-Roman"
             sodipodi:role="line"
             id="tspan30"
             x="299.44803"
             y="-205.54297" /></text>
<text
           y="-177.39981"
           x="49.847427"
           id="text3116"
           transform="scale(1,-1)"><tspan
             id="tspan3122"
             y="-177.39981"
             x="49.847427"
             sodipodi:role="line"
             style="font-size:16px;font-variant:normal;font-weight:normal;text-align:center;writing-mode:lr-tb;text-anchor:middle;fill:#000000;fill-opacity:1;fill-rule:nonzero;stroke:none;font-family:Times;-inkscape-font-specification:Times-Roman">입출력</tspan><tspan
             y="-157.39981"
             x="49.847427"
             sodipodi:role="line"
             style="font-size:16px;font-variant:normal;font-weight:normal;text-align:center;writing-mode:lr-tb;text-anchor:middle;fill:#000000;fill-opacity:1;fill-rule:nonzero;stroke:none;font-family:Times;-inkscape-font-specification:Times-Roman"
             id="tspan3132">장치</tspan><tspan
             y="-137.39981"
             x="49.847427"
             id="tspan3124"
             sodipodi:role="line"
             style="font-size:16px;font-variant:normal;font-weight:normal;text-align:center;writing-mode:lr-tb;text-anchor:middle;fill:#000000;fill-opacity:1;fill-rule:nonzero;stroke:none;font-family:Times;-inkscape-font-specification:Times-Roman" /><tspan
             y="-117.39981"
             x="49.847427"
             id="tspan3126"
             sodipodi:role="line"
             style="font-size:8px;font-variant:normal;font-weight:normal;text-align:center;writing-mode:lr-tb;text-anchor:middle;fill:#000000;fill-opacity:1;fill-rule:nonzero;stroke:none;font-family:Times;-inkscape-font-specification:Times-Roman" /></text>
<text
           transform="scale(1,-1)"
           id="text3134"
           x="187.4476"
           y="-177.39981"><tspan
             id="tspan3138"
             style="font-size:16px;font-variant:normal;font-weight:normal;text-align:center;writing-mode:lr-tb;text-anchor:middle;fill:#000000;fill-opacity:1;fill-rule:nonzero;stroke:none;font-family:Times;-inkscape-font-specification:Times-Roman"
             sodipodi:role="line"
             x="187.4476"
             y="-177.39981">중앙처리</tspan><tspan
             style="font-size:16px;font-variant:normal;font-weight:normal;text-align:center;writing-mode:lr-tb;text-anchor:middle;fill:#000000;fill-opacity:1;fill-rule:nonzero;stroke:none;font-family:Times;-inkscape-font-specification:Times-Roman"
             sodipodi:role="line"
             x="187.4476"
             y="-157.39981"
             id="tspan3185">장치</tspan><tspan
             style="font-size:16px;font-variant:normal;font-weight:normal;text-align:center;writing-mode:lr-tb;text-anchor:middle;fill:#000000;fill-opacity:1;fill-rule:nonzero;stroke:none;font-family:Times;-inkscape-font-specification:Times-Roman"
             sodipodi:role="line"
             id="tspan3140"
             x="187.4476"
             y="-137.39981" /><tspan
             style="font-size:8px;font-variant:normal;font-weight:normal;text-align:center;writing-mode:lr-tb;text-anchor:middle;fill:#000000;fill-opacity:1;fill-rule:nonzero;stroke:none;font-family:Times;-inkscape-font-specification:Times-Roman"
             sodipodi:role="line"
             id="tspan3142"
             x="187.4476"
             y="-117.39981" /></text>
<text
           y="-164.59976"
           x="381.04834"
           id="text3144"
           transform="scale(1,-1)"><tspan
             y="-164.59976"
             x="381.04834"
             id="tspan3152"
             sodipodi:role="line"
             style="font-size:16px;font-variant:normal;font-weight:normal;text-align:center;writing-mode:lr-tb;text-anchor:middle;fill:#000000;fill-opacity:1;fill-rule:nonzero;stroke:none;font-family:Times;-inkscape-font-specification:Times-Roman">네트워크</tspan></text>
<text
           transform="scale(1,-1)"
           id="text3154"
           x="325.04813"
           y="-60.599678"><tspan
             style="font-size:16px;font-variant:normal;font-weight:normal;text-align:center;writing-mode:lr-tb;text-anchor:middle;fill:#000000;fill-opacity:1;fill-rule:nonzero;stroke:none;font-family:Times;-inkscape-font-specification:Times-Roman"
             sodipodi:role="line"
             id="tspan3160"
             x="325.04813"
             y="-60.599678">보조</tspan><tspan
             style="font-size:16px;font-variant:normal;font-weight:normal;text-align:center;writing-mode:lr-tb;text-anchor:middle;fill:#000000;fill-opacity:1;fill-rule:nonzero;stroke:none;font-family:Times;-inkscape-font-specification:Times-Roman"
             sodipodi:role="line"
             x="325.04813"
             y="-40.599678"
             id="tspan3181">기억장치</tspan><tspan
             style="font-size:8px;font-variant:normal;font-weight:normal;text-align:center;writing-mode:lr-tb;text-anchor:middle;fill:#000000;fill-opacity:1;fill-rule:nonzero;stroke:none;font-family:Times;-inkscape-font-specification:Times-Roman"
             sodipodi:role="line"
             id="tspan3162"
             x="325.04813"
             y="-20.599678" /></text>
<text
           y="-46.199692"
           x="187.4476"
           id="text3164"
           transform="scale(1,-1)"><tspan
             y="-46.199692"
             x="187.4476"
             sodipodi:role="line"
             style="font-size:16px;font-variant:normal;font-weight:normal;text-align:center;writing-mode:lr-tb;text-anchor:middle;fill:#000000;fill-opacity:1;fill-rule:nonzero;stroke:none;font-family:Times;-inkscape-font-specification:Times-Roman"
             id="tspan3168">주기억장치</tspan><tspan
             y="-26.199692"
             x="187.4476"
             id="tspan3170"
             sodipodi:role="line"
             style="font-size:16px;font-variant:normal;font-weight:normal;text-align:center;writing-mode:lr-tb;text-anchor:middle;fill:#000000;fill-opacity:1;fill-rule:nonzero;stroke:none;font-family:Times;-inkscape-font-specification:Times-Roman" /><tspan
             y="-6.1996918"
             x="187.4476"
             id="tspan3172"
             sodipodi:role="line"
             style="font-size:8px;font-variant:normal;font-weight:normal;text-align:center;writing-mode:lr-tb;text-anchor:middle;fill:#000000;fill-opacity:1;fill-rule:nonzero;stroke:none;font-family:Times;-inkscape-font-specification:Times-Roman" /></text>
</g><path
         d="m 1370,155 1035,0 0,765 -1035,0 0,-765 z"
         style="fill:none;stroke:#000000;stroke-opacity:1;stroke-width:18;stroke-linecap:butt;stroke-linejoin:miter;stroke-miterlimit:10;stroke-dasharray:none"
         id="path32" /><path
         d="m 2720,155 1035,0 0,765 -1035,0 0,-765 z"
         style="fill:none;stroke:#000000;stroke-opacity:1;stroke-width:18;stroke-linecap:butt;stroke-linejoin:miter;stroke-miterlimit:10;stroke-dasharray:none"
         id="path34" /><path
         d="m 3305,1325 1035,0 0,765 -1035,0 0,-765 z"
         style="fill:none;stroke:#000000;stroke-opacity:1;stroke-width:18;stroke-linecap:butt;stroke-linejoin:miter;stroke-miterlimit:10;stroke-dasharray:none"
         id="path36" /><path
         d="m 20,1325 1035,0 0,765 -1035,0 0,-765 z"
         style="fill:none;stroke:#000000;stroke-opacity:1;stroke-width:18;stroke-linecap:butt;stroke-linejoin:miter;stroke-miterlimit:10;stroke-dasharray:none"
         id="path38" /><path
         d="m 1055,1685 315,0"
         style="fill:none;stroke:#000000;stroke-opacity:1;stroke-width:18;stroke-linecap:butt;stroke-linejoin:miter;stroke-miterlimit:10;stroke-dasharray:none"
         id="path40" /><path
         d="m 1235,20 1305,0 0,2385 -1305,0 0,-2385 z"
         style="fill:none;stroke:#000000;stroke-opacity:1;stroke-width:18;stroke-linecap:butt;stroke-linejoin:miter;stroke-miterlimit:10;stroke-dasharray:none"
         id="path42" /><path
         d="m 2405,515 315,0"
         style="fill:none;stroke:#000000;stroke-opacity:1;stroke-width:18;stroke-linecap:butt;stroke-linejoin:miter;stroke-miterlimit:10;stroke-dasharray:none"
         id="path44" /><path
         d="m 2405,1685 900,0"
         style="fill:none;stroke:#000000;stroke-opacity:1;stroke-width:18;stroke-linecap:butt;stroke-linejoin:miter;stroke-miterlimit:10;stroke-dasharray:none"
         id="path46" /><path
         d="m 1865,1325 0,-405"
         style="fill:none;stroke:#000000;stroke-opacity:1;stroke-width:18;stroke-linecap:butt;stroke-linejoin:miter;stroke-miterlimit:10;stroke-dasharray:none"
         id="path48" /><path
         d="m 1370,1325 1035,0 0,765 -1035,0 0,-765 z"
         style="fill:none;stroke:#000000;stroke-opacity:1;stroke-width:18;stroke-linecap:butt;stroke-linejoin:miter;stroke-miterlimit:10;stroke-dasharray:none"
         id="path50" /><path
         d="m 2834.6,2540 0,0 c -24.85,0 -45,-20.15 -45,-45 l 0,-244.2 c 0,-24.85 20.15,-45 45,-45 l 335.4,0 c 24.85,0 45,20.15 45,45 l 0,244.2 c 0,24.85 -20.15,45 -45,45 l -335.4,0 z"
         style="fill:none;stroke:#000000;stroke-opacity:1;stroke-width:18;stroke-linecap:butt;stroke-linejoin:miter;stroke-miterlimit:10;stroke-dasharray:none"
         id="path52" /><g
         id="g54"
         transform="scale(10,10)"><text
           transform="matrix(1,0,0,-1,155,195.5)"
           id="text56"><tspan
             style="font-size:12px;font-variant:normal;font-weight:normal;writing-mode:lr-tb;fill:#000000;fill-opacity:1;fill-rule:nonzero;stroke:none;font-family:Times;-inkscape-font-specification:Times-Roman"
             sodipodi:role="line"
             id="tspan70"
             x="0"
             y="0" /></text>
</g><path
         d="m 2513.6,2180 c 0,-35.12 -28.47,-63.6 -63.6,-63.6 -35.12,0 -63.6,28.48 -63.6,63.6 0,35.13 28.48,63.6 63.6,63.6 35.13,0 63.6,-28.47 63.6,-63.6"
         style="fill:#ffffff;fill-opacity:1;fill-rule:evenodd;stroke:none"
         id="path72" /><path
         d="m 2513.6,2180 c 0,-35.12 -28.47,-63.6 -63.6,-63.6 -35.12,0 -63.6,28.48 -63.6,63.6 0,35.13 28.48,63.6 63.6,63.6 35.13,0 63.6,-28.47 63.6,-63.6 z"
         style="fill:none;stroke:#000000;stroke-opacity:1;stroke-width:18;stroke-linecap:butt;stroke-linejoin:miter;stroke-miterlimit:10;stroke-dasharray:none"
         id="path74" /><path
         d="m 2423.6,2090 c 0,-35.12 -28.47,-63.6 -63.6,-63.6 -35.12,0 -63.6,28.48 -63.6,63.6 0,35.13 28.48,63.6 63.6,63.6 35.13,0 63.6,-28.47 63.6,-63.6"
         style="fill:#ffffff;fill-opacity:1;fill-rule:evenodd;stroke:none"
         id="path76" /><path
         d="m 2423.6,2090 c 0,-35.12 -28.47,-63.6 -63.6,-63.6 -35.12,0 -63.6,28.48 -63.6,63.6 0,35.13 28.48,63.6 63.6,63.6 35.13,0 63.6,-28.47 63.6,-63.6 z"
         style="fill:none;stroke:#000000;stroke-opacity:1;stroke-width:18;stroke-linecap:butt;stroke-linejoin:miter;stroke-miterlimit:10;stroke-dasharray:none"
         id="path78" /><path
         d="m 2603.6,2198.6 c 0,-35.12 -28.47,-63.6 -63.6,-63.6 -35.12,0 -63.6,28.48 -63.6,63.6 0,35.13 28.48,63.6 63.6,63.6 35.13,0 63.6,-28.47 63.6,-63.6"
         style="fill:#ffffff;fill-opacity:1;fill-rule:evenodd;stroke:none"
         id="path80" /><path
         d="m 2603.6,2198.6 c 0,-35.12 -28.47,-63.6 -63.6,-63.6 -35.12,0 -63.6,28.48 -63.6,63.6 0,35.13 28.48,63.6 63.6,63.6 35.13,0 63.6,-28.47 63.6,-63.6 z"
         style="fill:none;stroke:#000000;stroke-opacity:1;stroke-width:18;stroke-linecap:butt;stroke-linejoin:miter;stroke-miterlimit:10;stroke-dasharray:none"
         id="path82" /><path
         d="m 2669.6,2283.8 c 0,-35.12 -28.47,-63.6 -63.6,-63.6 -35.12,0 -63.6,28.48 -63.6,63.6 0,35.13 28.48,63.6 63.6,63.6 35.13,0 63.6,-28.47 63.6,-63.6"
         style="fill:#ffffff;fill-opacity:1;fill-rule:evenodd;stroke:none"
         id="path84" /><path
         d="m 2669.6,2283.8 c 0,-35.12 -28.47,-63.6 -63.6,-63.6 -35.12,0 -63.6,28.48 -63.6,63.6 0,35.13 28.48,63.6 63.6,63.6 35.13,0 63.6,-28.47 63.6,-63.6 z"
         style="fill:none;stroke:#000000;stroke-opacity:1;stroke-width:18;stroke-linecap:butt;stroke-linejoin:miter;stroke-miterlimit:10;stroke-dasharray:none"
         id="path86" /><path
         d="m 2783.6,2333.6 c 0,-35.12 -28.47,-63.6 -63.6,-63.6 -35.12,0 -63.6,28.48 -63.6,63.6 0,35.13 28.48,63.6 63.6,63.6 35.13,0 63.6,-28.47 63.6,-63.6"
         style="fill:#ffffff;fill-opacity:1;fill-rule:evenodd;stroke:none"
         id="path88" /><path
         d="m 2783.6,2333.6 c 0,-35.12 -28.47,-63.6 -63.6,-63.6 -35.12,0 -63.6,28.48 -63.6,63.6 0,35.13 28.48,63.6 63.6,63.6 35.13,0 63.6,-28.47 63.6,-63.6 z"
         style="fill:none;stroke:#000000;stroke-opacity:1;stroke-width:18;stroke-linecap:butt;stroke-linejoin:miter;stroke-miterlimit:10;stroke-dasharray:none"
         id="path90" /><path
         d="m 2333.6,2000 c 0,-35.12 -28.47,-63.6 -63.6,-63.6 -35.12,0 -63.6,28.48 -63.6,63.6 0,35.13 28.48,63.6 63.6,63.6 35.13,0 63.6,-28.47 63.6,-63.6"
         style="fill:#ffffff;fill-opacity:1;fill-rule:evenodd;stroke:none"
         id="path92" /><path
         d="m 2333.6,2000 c 0,-35.12 -28.47,-63.6 -63.6,-63.6 -35.12,0 -63.6,28.48 -63.6,63.6 0,35.13 28.48,63.6 63.6,63.6 35.13,0 63.6,-28.47 63.6,-63.6 z"
         style="fill:none;stroke:#000000;stroke-opacity:1;stroke-width:18;stroke-linecap:butt;stroke-linejoin:miter;stroke-miterlimit:10;stroke-dasharray:none"
         id="path94" /></g></g></svg>