<?xml version="1.0" encoding="UTF-8" standalone="no"?>
<!-- Created with Inkscape (http://www.inkscape.org/) -->

<svg
   xmlns:dc="http://purl.org/dc/elements/1.1/"
   xmlns:cc="http://creativecommons.org/ns#"
   xmlns:rdf="http://www.w3.org/1999/02/22-rdf-syntax-ns#"
   xmlns:svg="http://www.w3.org/2000/svg"
   xmlns="http://www.w3.org/2000/svg"
   xmlns:sodipodi="http://sodipodi.sourceforge.net/DTD/sodipodi-0.dtd"
   xmlns:inkscape="http://www.inkscape.org/namespaces/inkscape"
   id="svg2"
   version="1.1"
   inkscape:version="0.48.4 r9939"
   width="545"
   height="320"
   xml:space="preserve"
   sodipodi:docname="arch2.eps"><metadata
     id="metadata8"><rdf:RDF><cc:Work
         rdf:about=""><dc:format>image/svg+xml</dc:format><dc:type
           rdf:resource="http://purl.org/dc/dcmitype/StillImage" /><dc:title></dc:title></cc:Work></rdf:RDF></metadata><defs
     id="defs6"><clipPath
       clipPathUnits="userSpaceOnUse"
       id="clipPath72"><path
         d="M 0,2560 0,0 l 4360,0 0,2560 -4360,0 z m 1904,-2216 105,0 0,72 -105,0 0,0 90,-36 -90,-36 z"
         clip-rule="evenodd"
         id="path74" /></clipPath></defs><sodipodi:namedview
     pagecolor="#ffffff"
     bordercolor="#666666"
     borderopacity="1"
     objecttolerance="10"
     gridtolerance="10"
     guidetolerance="10"
     inkscape:pageopacity="0"
     inkscape:pageshadow="2"
     inkscape:window-width="1855"
     inkscape:window-height="1056"
     id="namedview4"
     showgrid="false"
     inkscape:zoom="0.9367543"
     inkscape:cx="60.773267"
     inkscape:cy="280.98923"
     inkscape:window-x="1985"
     inkscape:window-y="24"
     inkscape:window-maximized="1"
     inkscape:current-layer="g10" /><g
     id="g10"
     inkscape:groupmode="layer"
     inkscape:label="ink_ext_XXXXXX"
     transform="matrix(1.25,0,0,-1.25,0,320)"><g
       id="g12"
       transform="scale(0.1,0.1)"><g
         id="g14"
         transform="scale(10,10)"><text
           transform="matrix(1,0,0,-1,155,33.5)"
           id="text16"><tspan
             style="font-size:12px;font-variant:normal;font-weight:normal;writing-mode:lr-tb;fill:#000000;fill-opacity:1;fill-rule:nonzero;stroke:none;font-family:Times;-inkscape-font-specification:Times-Roman"
             sodipodi:role="line"
             id="tspan30"
             x="0"
             y="0" /></text>
</g><path
         d="m 2266.4,560 c 0,-47.715 -38.69,-86.398 -86.4,-86.398 -47.71,0 -86.4,38.683 -86.4,86.398 0,47.715 38.69,86.398 86.4,86.398 47.71,0 86.4,-38.683 86.4,-86.398"
         style="fill:#000000;fill-opacity:1;fill-rule:evenodd;stroke:none"
         id="path32" /><path
         d="m 2266.4,560 c 0,-47.715 -38.69,-86.398 -86.4,-86.398 -47.71,0 -86.4,38.683 -86.4,86.398 0,47.715 38.69,86.398 86.4,86.398 47.71,0 86.4,-38.683 86.4,-86.398 z"
         style="fill:none;stroke:#000000;stroke-opacity:1;stroke-width:4.5;stroke-linecap:butt;stroke-linejoin:miter;stroke-miterlimit:10;stroke-dasharray:none"
         id="path34" /><path
         d="m 1370,155 1035,0 0,765 -1035,0 0,-765 z"
         style="fill:none;stroke:#000000;stroke-opacity:1;stroke-width:18;stroke-linecap:butt;stroke-linejoin:miter;stroke-miterlimit:10;stroke-dasharray:none"
         id="path36" /><path
         d="m 2720,155 1035,0 0,765 -1035,0 0,-765 z"
         style="fill:none;stroke:#000000;stroke-opacity:1;stroke-width:18;stroke-linecap:butt;stroke-linejoin:miter;stroke-miterlimit:10;stroke-dasharray:none"
         id="path38" /><path
         d="m 3305,1325 1035,0 0,765 -1035,0 0,-765 z"
         style="fill:none;stroke:#000000;stroke-opacity:1;stroke-width:18;stroke-linecap:butt;stroke-linejoin:miter;stroke-miterlimit:10;stroke-dasharray:none"
         id="path40" /><path
         d="m 20,1325 1035,0 0,765 -1035,0 0,-765 z"
         style="fill:none;stroke:#000000;stroke-opacity:1;stroke-width:18;stroke-linecap:butt;stroke-linejoin:miter;stroke-miterlimit:10;stroke-dasharray:none"
         id="path42" /><path
         d="m 1055,1685 315,0"
         style="fill:none;stroke:#000000;stroke-opacity:1;stroke-width:18;stroke-linecap:butt;stroke-linejoin:miter;stroke-miterlimit:10;stroke-dasharray:none"
         id="path44" /><path
         d="m 1235,20 1305,0 0,2385 -1305,0 0,-2385 z"
         style="fill:none;stroke:#000000;stroke-opacity:1;stroke-width:18;stroke-linecap:butt;stroke-linejoin:miter;stroke-miterlimit:10;stroke-dasharray:none"
         id="path46" /><path
         d="m 2405,515 315,0"
         style="fill:none;stroke:#000000;stroke-opacity:1;stroke-width:18;stroke-linecap:butt;stroke-linejoin:miter;stroke-miterlimit:10;stroke-dasharray:none"
         id="path48" /><path
         d="m 2405,1685 900,0"
         style="fill:none;stroke:#000000;stroke-opacity:1;stroke-width:18;stroke-linecap:butt;stroke-linejoin:miter;stroke-miterlimit:10;stroke-dasharray:none"
         id="path50" /><path
         d="m 1865,1325 0,-405"
         style="fill:none;stroke:#000000;stroke-opacity:1;stroke-width:18;stroke-linecap:butt;stroke-linejoin:miter;stroke-miterlimit:10;stroke-dasharray:none"
         id="path52" /><path
         d="m 1370,1325 1035,0 0,765 -1035,0 0,-765 z"
         style="fill:none;stroke:#000000;stroke-opacity:1;stroke-width:18;stroke-linecap:butt;stroke-linejoin:miter;stroke-miterlimit:10;stroke-dasharray:none"
         id="path54" /><path
         d="m 2834.6,2540 0,0 c -24.85,0 -45,-20.15 -45,-45 l 0,-244.2 c 0,-24.85 20.15,-45 45,-45 l 335.4,0 c 24.85,0 45,20.15 45,45 l 0,244.2 c 0,24.85 -20.15,45 -45,45 l -335.4,0 z"
         style="fill:none;stroke:#000000;stroke-opacity:1;stroke-width:18;stroke-linecap:butt;stroke-linejoin:miter;stroke-miterlimit:10;stroke-dasharray:none"
         id="path56" /><path
         d="m 2180,515 0,-180"
         style="fill:none;stroke:#000000;stroke-opacity:1;stroke-width:18;stroke-linecap:butt;stroke-linejoin:miter;stroke-miterlimit:10;stroke-dasharray:none"
         id="path58" /><path
         d="m 2180,335 -45,-45 0,-45"
         style="fill:none;stroke:#000000;stroke-opacity:1;stroke-width:18;stroke-linecap:butt;stroke-linejoin:miter;stroke-miterlimit:10;stroke-dasharray:none"
         id="path60" /><path
         d="m 2180,335 45,-45 0,-45"
         style="fill:none;stroke:#000000;stroke-opacity:1;stroke-width:18;stroke-linecap:butt;stroke-linejoin:miter;stroke-miterlimit:10;stroke-dasharray:none"
         id="path62" /><path
         d="m 2180,380 -90,45"
         style="fill:none;stroke:#000000;stroke-opacity:1;stroke-width:18;stroke-linecap:butt;stroke-linejoin:miter;stroke-miterlimit:10;stroke-dasharray:none"
         id="path64" /><path
         d="m 2180,380 90,45"
         style="fill:none;stroke:#000000;stroke-opacity:1;stroke-width:18;stroke-linecap:butt;stroke-linejoin:miter;stroke-miterlimit:10;stroke-dasharray:none"
         id="path66" /><g
         id="g68"><g
           id="g70"
           clip-path="url(#clipPath72)"><path
             d="m 1820,380 180,0"
             style="fill:none;stroke:#000000;stroke-opacity:1;stroke-width:18;stroke-linecap:butt;stroke-linejoin:miter;stroke-miterlimit:10;stroke-dasharray:none"
             id="path76" /></g></g><path
         d="m 1904,344 90,36 -90,36 18,-36 -18,-36"
         style="fill:#000000;fill-opacity:1;fill-rule:evenodd;stroke:none"
         id="path78" /><path
         d="m 1904,344 90,36 -90,36 18,-36 -18,-36 z"
         style="fill:none;stroke:#000000;stroke-opacity:1;stroke-width:4.5;stroke-linecap:butt;stroke-linejoin:miter;stroke-miterlimit:10;stroke-dasharray:none"
         id="path80" /><g
         id="g82"
         transform="scale(10,10)"><text
           transform="matrix(1,0,0,-1,155,195.5)"
           id="text84"><tspan
             style="font-size:12px;font-variant:normal;font-weight:normal;writing-mode:lr-tb;fill:#000000;fill-opacity:1;fill-rule:nonzero;stroke:none;font-family:Times;-inkscape-font-specification:Times-Roman"
             sodipodi:role="line"
             id="tspan100"
             x="0"
             y="0" /></text>
</g><path
         d="m 2513.6,2180 c 0,-35.12 -28.47,-63.6 -63.6,-63.6 -35.12,0 -63.6,28.48 -63.6,63.6 0,35.13 28.48,63.6 63.6,63.6 35.13,0 63.6,-28.47 63.6,-63.6"
         style="fill:#ffffff;fill-opacity:1;fill-rule:evenodd;stroke:none"
         id="path102" /><path
         d="m 2513.6,2180 c 0,-35.12 -28.47,-63.6 -63.6,-63.6 -35.12,0 -63.6,28.48 -63.6,63.6 0,35.13 28.48,63.6 63.6,63.6 35.13,0 63.6,-28.47 63.6,-63.6 z"
         style="fill:none;stroke:#000000;stroke-opacity:1;stroke-width:18;stroke-linecap:butt;stroke-linejoin:miter;stroke-miterlimit:10;stroke-dasharray:none"
         id="path104" /><path
         d="m 2423.6,2090 c 0,-35.12 -28.47,-63.6 -63.6,-63.6 -35.12,0 -63.6,28.48 -63.6,63.6 0,35.13 28.48,63.6 63.6,63.6 35.13,0 63.6,-28.47 63.6,-63.6"
         style="fill:#ffffff;fill-opacity:1;fill-rule:evenodd;stroke:none"
         id="path106" /><path
         d="m 2423.6,2090 c 0,-35.12 -28.47,-63.6 -63.6,-63.6 -35.12,0 -63.6,28.48 -63.6,63.6 0,35.13 28.48,63.6 63.6,63.6 35.13,0 63.6,-28.47 63.6,-63.6 z"
         style="fill:none;stroke:#000000;stroke-opacity:1;stroke-width:18;stroke-linecap:butt;stroke-linejoin:miter;stroke-miterlimit:10;stroke-dasharray:none"
         id="path108" /><path
         d="m 2603.6,2198.6 c 0,-35.12 -28.47,-63.6 -63.6,-63.6 -35.12,0 -63.6,28.48 -63.6,63.6 0,35.13 28.48,63.6 63.6,63.6 35.13,0 63.6,-28.47 63.6,-63.6"
         style="fill:#ffffff;fill-opacity:1;fill-rule:evenodd;stroke:none"
         id="path110" /><path
         d="m 2603.6,2198.6 c 0,-35.12 -28.47,-63.6 -63.6,-63.6 -35.12,0 -63.6,28.48 -63.6,63.6 0,35.13 28.48,63.6 63.6,63.6 35.13,0 63.6,-28.47 63.6,-63.6 z"
         style="fill:none;stroke:#000000;stroke-opacity:1;stroke-width:18;stroke-linecap:butt;stroke-linejoin:miter;stroke-miterlimit:10;stroke-dasharray:none"
         id="path112" /><path
         d="m 2669.6,2283.8 c 0,-35.12 -28.47,-63.6 -63.6,-63.6 -35.12,0 -63.6,28.48 -63.6,63.6 0,35.13 28.48,63.6 63.6,63.6 35.13,0 63.6,-28.47 63.6,-63.6"
         style="fill:#ffffff;fill-opacity:1;fill-rule:evenodd;stroke:none"
         id="path114" /><path
         d="m 2669.6,2283.8 c 0,-35.12 -28.47,-63.6 -63.6,-63.6 -35.12,0 -63.6,28.48 -63.6,63.6 0,35.13 28.48,63.6 63.6,63.6 35.13,0 63.6,-28.47 63.6,-63.6 z"
         style="fill:none;stroke:#000000;stroke-opacity:1;stroke-width:18;stroke-linecap:butt;stroke-linejoin:miter;stroke-miterlimit:10;stroke-dasharray:none"
         id="path116" /><path
         d="m 2783.6,2333.6 c 0,-35.12 -28.47,-63.6 -63.6,-63.6 -35.12,0 -63.6,28.48 -63.6,63.6 0,35.13 28.48,63.6 63.6,63.6 35.13,0 63.6,-28.47 63.6,-63.6"
         style="fill:#ffffff;fill-opacity:1;fill-rule:evenodd;stroke:none"
         id="path118" /><path
         d="m 2783.6,2333.6 c 0,-35.12 -28.47,-63.6 -63.6,-63.6 -35.12,0 -63.6,28.48 -63.6,63.6 0,35.13 28.48,63.6 63.6,63.6 35.13,0 63.6,-28.47 63.6,-63.6 z"
         style="fill:none;stroke:#000000;stroke-opacity:1;stroke-width:18;stroke-linecap:butt;stroke-linejoin:miter;stroke-miterlimit:10;stroke-dasharray:none"
         id="path120" /><path
         d="m 2333.6,2000 c 0,-35.12 -28.47,-63.6 -63.6,-63.6 -35.12,0 -63.6,28.48 -63.6,63.6 0,35.13 28.48,63.6 63.6,63.6 35.13,0 63.6,-28.47 63.6,-63.6"
         style="fill:#ffffff;fill-opacity:1;fill-rule:evenodd;stroke:none"
         id="path122" /><path
         d="m 2333.6,2000 c 0,-35.12 -28.47,-63.6 -63.6,-63.6 -35.12,0 -63.6,28.48 -63.6,63.6 0,35.13 28.48,63.6 63.6,63.6 35.13,0 63.6,-28.47 63.6,-63.6 z"
         style="fill:none;stroke:#000000;stroke-opacity:1;stroke-width:18;stroke-linecap:butt;stroke-linejoin:miter;stroke-miterlimit:10;stroke-dasharray:none"
         id="path124" /></g><text
       xml:space="preserve"
       style="font-size:32px;font-style:normal;font-weight:normal;line-height:125%;letter-spacing:0px;word-spacing:0px;fill:#000000;fill-opacity:1;stroke:none;font-family:times;-inkscape-font-specification:times"
       x="51.925575"
       y="-178.68793"
       id="text3163"
       sodipodi:linespacing="125%"
       transform="scale(1,-1)"><tspan
         sodipodi:role="line"
         id="tspan3165"
         x="51.925575"
         y="-178.68793"
         style="font-size:17.60000038px;font-style:normal;font-variant:normal;font-weight:normal;font-stretch:normal;text-align:center;text-anchor:middle;font-family:times;-inkscape-font-specification:times">입출력</tspan><tspan
         sodipodi:role="line"
         x="51.925575"
         y="-156.68793"
         id="tspan3167"
         style="font-size:17.60000038px;font-style:normal;font-variant:normal;font-weight:normal;font-stretch:normal;text-align:center;text-anchor:middle;font-family:times;-inkscape-font-specification:times">장치</tspan></text>
<text
       transform="scale(1,-1)"
       sodipodi:linespacing="125%"
       id="text3171"
       y="-178.68793"
       x="189.52576"
       style="font-size:32px;font-style:normal;font-weight:normal;line-height:125%;letter-spacing:0px;word-spacing:0px;fill:#000000;fill-opacity:1;stroke:none;font-family:times;-inkscape-font-specification:times"
       xml:space="preserve"><tspan
         style="font-size:17.60000038px;font-style:normal;font-variant:normal;font-weight:normal;font-stretch:normal;text-align:center;text-anchor:middle;font-family:times;-inkscape-font-specification:times"
         id="tspan3175"
         y="-178.68793"
         x="189.52576"
         sodipodi:role="line">중앙처리</tspan><tspan
         style="font-size:17.60000038px;font-style:normal;font-variant:normal;font-weight:normal;font-stretch:normal;text-align:center;text-anchor:middle;font-family:times;-inkscape-font-specification:times"
         y="-156.68793"
         x="189.52576"
         sodipodi:role="line"
         id="tspan3197">장치</tspan></text>
<text
       xml:space="preserve"
       style="font-size:32px;font-style:normal;font-weight:normal;line-height:125%;letter-spacing:0px;word-spacing:0px;fill:#000000;fill-opacity:1;stroke:none;font-family:times;-inkscape-font-specification:times"
       x="384.7265"
       y="-178.68793"
       id="text3177"
       sodipodi:linespacing="125%"
       transform="scale(1,-1)"><tspan
         sodipodi:role="line"
         x="384.7265"
         y="-178.68793"
         id="tspan3181"
         style="font-size:17.60000038px;font-style:normal;font-variant:normal;font-weight:normal;font-stretch:normal;text-align:center;text-anchor:middle;font-family:times;-inkscape-font-specification:times">네트워크</tspan></text>
<text
       transform="scale(1,-1)"
       sodipodi:linespacing="125%"
       id="text3183"
       y="-58.687782"
       x="320.72626"
       style="font-size:32px;font-style:normal;font-weight:normal;line-height:125%;letter-spacing:0px;word-spacing:0px;fill:#000000;fill-opacity:1;stroke:none;font-family:times;-inkscape-font-specification:times"
       xml:space="preserve"><tspan
         style="font-size:17.60000038px;font-style:normal;font-variant:normal;font-weight:normal;font-stretch:normal;text-align:center;text-anchor:middle;font-family:times;-inkscape-font-specification:times"
         id="tspan3187"
         y="-58.687782"
         x="320.72626"
         sodipodi:role="line">보조기억</tspan><tspan
         style="font-size:17.60000038px;font-style:normal;font-variant:normal;font-weight:normal;font-stretch:normal;text-align:center;text-anchor:middle;font-family:times;-inkscape-font-specification:times"
         y="-36.687782"
         x="320.72626"
         sodipodi:role="line"
         id="tspan3203">장치</tspan></text>
<text
       xml:space="preserve"
       style="font-size:32px;font-style:normal;font-weight:normal;line-height:125%;letter-spacing:0px;word-spacing:0px;fill:#000000;fill-opacity:1;stroke:none;font-family:times;-inkscape-font-specification:times"
       x="192.72577"
       y="-71.48777"
       id="text3189"
       sodipodi:linespacing="125%"
       transform="scale(1,-1)"><tspan
         sodipodi:role="line"
         x="192.72577"
         y="-71.48777"
         id="tspan3193"
         style="font-size:17.60000038px;font-style:normal;font-variant:normal;font-weight:normal;font-stretch:normal;text-align:center;text-anchor:middle;font-family:times;-inkscape-font-specification:times">주기억장치</tspan></text>
<text
       xml:space="preserve"
       style="font-size:32px;font-style:normal;font-weight:normal;line-height:125%;letter-spacing:0px;word-spacing:0px;fill:#000000;fill-opacity:1;stroke:none;font-family:times;-inkscape-font-specification:times"
       x="299.92618"
       y="-244.28818"
       id="text3213"
       sodipodi:linespacing="125%"
       transform="scale(1,-1)"><tspan
         id="tspan3217"
         sodipodi:role="line"
         x="299.92618"
         y="-244.28818"
         style="font-size:8px;font-style:normal;font-variant:normal;font-weight:normal;font-stretch:normal;text-align:center;text-anchor:middle;font-family:times;-inkscape-font-specification:times">다음에</tspan><tspan
         sodipodi:role="line"
         x="299.92618"
         y="-234.28818"
         style="font-size:8px;font-style:normal;font-variant:normal;font-weight:normal;font-stretch:normal;text-align:center;text-anchor:middle;font-family:times;-inkscape-font-specification:times"
         id="tspan3221">무엇을</tspan><tspan
         sodipodi:role="line"
         x="299.92618"
         y="-224.28818"
         style="font-size:8px;font-style:normal;font-variant:normal;font-weight:normal;font-stretch:normal;text-align:center;text-anchor:middle;font-family:times;-inkscape-font-specification:times"
         id="tspan3223">처리하지?</tspan></text>
<text
       transform="scale(1,-1)"
       sodipodi:linespacing="125%"
       id="text3233"
       y="-31.487806"
       x="160.72565"
       style="font-size:32px;font-style:normal;font-weight:normal;line-height:125%;letter-spacing:0px;word-spacing:0px;fill:#000000;fill-opacity:1;stroke:none;font-family:times;-inkscape-font-specification:times"
       xml:space="preserve"><tspan
         style="font-size:14.39999962px;font-style:normal;font-variant:normal;font-weight:normal;font-stretch:normal;text-align:center;text-anchor:middle;font-family:times;-inkscape-font-specification:times"
         id="tspan3235"
         y="-31.487806"
         x="160.72565"
         sodipodi:role="line">여러분</tspan></text>
</g></svg>