<?xml version="1.0" encoding="UTF-8" standalone="no"?>
<!-- Created with Inkscape (http://www.inkscape.org/) -->

<svg
   xmlns:dc="http://purl.org/dc/elements/1.1/"
   xmlns:cc="http://creativecommons.org/ns#"
   xmlns:rdf="http://www.w3.org/1999/02/22-rdf-syntax-ns#"
   xmlns:svg="http://www.w3.org/2000/svg"
   xmlns="http://www.w3.org/2000/svg"
   xmlns:sodipodi="http://sodipodi.sourceforge.net/DTD/sodipodi-0.dtd"
   xmlns:inkscape="http://www.inkscape.org/namespaces/inkscape"
   id="svg2"
   version="1.1"
   inkscape:version="0.48.4 r9939"
   width="238.75"
   height="120"
   xml:space="preserve"
   sodipodi:docname="pda.eps"><metadata
     id="metadata8"><rdf:RDF><cc:Work
         rdf:about=""><dc:format>image/svg+xml</dc:format><dc:type
           rdf:resource="http://purl.org/dc/dcmitype/StillImage" /><dc:title></dc:title></cc:Work></rdf:RDF></metadata><defs
     id="defs6" /><sodipodi:namedview
     pagecolor="#ffffff"
     bordercolor="#666666"
     borderopacity="1"
     objecttolerance="10"
     gridtolerance="10"
     guidetolerance="10"
     inkscape:pageopacity="0"
     inkscape:pageshadow="2"
     inkscape:window-width="1077"
     inkscape:window-height="803"
     id="namedview4"
     showgrid="false"
     inkscape:zoom="1.5120419"
     inkscape:cx="119.375"
     inkscape:cy="60"
     inkscape:window-x="2631"
     inkscape:window-y="168"
     inkscape:window-maximized="0"
     inkscape:current-layer="g10" /><g
     id="g10"
     inkscape:groupmode="layer"
     inkscape:label="ink_ext_XXXXXX"
     transform="matrix(1.25,0,0,-1.25,0,120)"><g
       id="g12"
       transform="scale(0.1,0.1)"><g
         id="g14"
         transform="scale(10,10)"><text
           transform="matrix(1,0,0,-1,158.2,18.7)"
           id="text16"><tspan
             style="font-size:12px;font-variant:normal;font-weight:normal;writing-mode:lr-tb;fill:#000000;fill-opacity:1;fill-rule:nonzero;stroke:none;font-family:Times;-inkscape-font-specification:Times-Roman"
             x="0"
             sodipodi:role="line"
             id="tspan20"
             y="0" /><tspan
             style="font-size:12px;font-variant:normal;font-weight:normal;writing-mode:lr-tb;fill:#000000;fill-opacity:1;fill-rule:nonzero;stroke:none;font-family:Times;-inkscape-font-specification:Times-Roman"
             sodipodi:role="line"
             id="tspan22"
             x="0"
             y="15" /></text>
</g><path
         d="m 664,412 0,0 c -39.762,0 -72,-32.238 -72,-72 l 0,-171 c 0,-39.762 32.238,-72 72,-72 l 216,0 c 39.762,0 72,32.238 72,72 l 0,171 c 0,39.762 -32.238,72 -72,72 l -216,0 z"
         style="fill:none;stroke:#000000;stroke-opacity:1;stroke-width:4.5;stroke-linecap:butt;stroke-linejoin:miter;stroke-miterlimit:10;stroke-dasharray:none"
         id="path24" /><g
         id="g26"
         transform="scale(10,10)"><text
           transform="matrix(1,0,0,-1,63.7,12.4)"
           id="text28"><tspan
             style="font-size:12px;font-variant:normal;font-weight:normal;writing-mode:lr-tb;fill:#000000;fill-opacity:1;fill-rule:nonzero;stroke:none;font-family:Times;-inkscape-font-specification:Times-Roman"
             x="0"
             sodipodi:role="line"
             id="tspan30"
             y="0" /><tspan
             style="font-size:12px;font-variant:normal;font-weight:normal;writing-mode:lr-tb;fill:#000000;fill-opacity:1;fill-rule:nonzero;stroke:none;font-family:Times;-inkscape-font-specification:Times-Roman"
             sodipodi:role="line"
             id="tspan32"
             x="0"
             y="15" /></text>
</g><path
         d="m 1159,412 0,0 c -39.76,0 -72,-32.238 -72,-72 l 0,-171 c 0,-39.762 32.24,-72 72,-72 l 216,0 c 39.76,0 72,32.238 72,72 l 0,171 c 0,39.762 -32.24,72 -72,72 l -216,0 z"
         style="fill:none;stroke:#000000;stroke-opacity:1;stroke-width:4.5;stroke-linecap:butt;stroke-linejoin:miter;stroke-miterlimit:10;stroke-dasharray:none"
         id="path34" /><g
         id="g36"
         transform="scale(10,10)"><text
           transform="matrix(1,0,0,-1,113.2,12.4)"
           id="text38"><tspan
             style="font-size:12px;font-variant:normal;font-weight:normal;writing-mode:lr-tb;fill:#000000;fill-opacity:1;fill-rule:nonzero;stroke:none;font-family:Times;-inkscape-font-specification:Times-Roman"
             x="0"
             sodipodi:role="line"
             id="tspan40"
             y="0" /><tspan
             style="font-size:12px;font-variant:normal;font-weight:normal;writing-mode:lr-tb;fill:#000000;fill-opacity:1;fill-rule:nonzero;stroke:none;font-family:Times;-inkscape-font-specification:Times-Roman"
             sodipodi:role="line"
             id="tspan42"
             x="0"
             y="15" /></text>
</g><path
         d="m 1159,862 0,0 c -39.76,0 -72,-32.238 -72,-72 l 0,-171 c 0,-39.762 32.24,-72 72,-72 l 216,0 c 39.76,0 72,32.238 72,72 l 0,171 c 0,39.762 -32.24,72 -72,72 l -216,0 z"
         style="fill:none;stroke:#000000;stroke-opacity:1;stroke-width:4.5;stroke-linecap:butt;stroke-linejoin:miter;stroke-miterlimit:10;stroke-dasharray:none"
         id="path44" /><g
         id="g46"
         transform="scale(10,10)"><text
           transform="matrix(1,0,0,-1,113.2,57.4)"
           id="text48"><tspan
             style="font-size:12px;font-variant:normal;font-weight:normal;writing-mode:lr-tb;fill:#000000;fill-opacity:1;fill-rule:nonzero;stroke:none;font-family:Times;-inkscape-font-specification:Times-Roman"
             x="0"
             sodipodi:role="line"
             id="tspan50"
             y="0" /><tspan
             style="font-size:12px;font-variant:normal;font-weight:normal;writing-mode:lr-tb;fill:#000000;fill-opacity:1;fill-rule:nonzero;stroke:none;font-family:Times;-inkscape-font-specification:Times-Roman"
             sodipodi:role="line"
             id="tspan52"
             x="0"
             y="15" /></text>
</g><path
         d="m 169,862 0,0 c -39.762,0 -72,-32.238 -72,-72 l 0,-171 c 0,-39.762 32.238,-72 72,-72 l 216,0 c 39.762,0 72,32.238 72,72 l 0,171 c 0,39.762 -32.238,72 -72,72 l -216,0 z"
         style="fill:none;stroke:#000000;stroke-opacity:1;stroke-width:4.5;stroke-linecap:butt;stroke-linejoin:miter;stroke-miterlimit:10;stroke-dasharray:none"
         id="path54" /><g
         id="g56"
         transform="scale(10,10)"><text
           transform="scale(1,-1)"
           id="text58"
           x="16.845428"
           y="-76.44709"><tspan
             style="font-size:6.40000009999999975px;font-variant:normal;font-weight:normal;line-height:125%;writing-mode:lr-tb;fill:#000000;fill-opacity:1;fill-rule:nonzero;stroke:none;font-family:Times;-inkscape-font-specification:Times-Roman"
             x="16.845428"
             y="-76.44709"
             sodipodi:role="line"
             id="tspan62">다음에 </tspan><tspan
             style="font-size:6.40000009999999975px;font-variant:normal;font-weight:normal;line-height:125%;writing-mode:lr-tb;fill:#000000;fill-opacity:1;fill-rule:nonzero;stroke:none;font-family:Times;-inkscape-font-specification:Times-Roman"
             x="16.845428"
             y="-68.18425"
             sodipodi:role="line"
             id="tspan3061">무엇을 </tspan><tspan
             style="font-size:6.40000009999999975px;font-variant:normal;font-weight:normal;line-height:125%;writing-mode:lr-tb;fill:#000000;fill-opacity:1;fill-rule:nonzero;stroke:none;font-family:Times;-inkscape-font-specification:Times-Roman"
             x="16.845428"
             y="-59.921402"
             sodipodi:role="line"
             id="tspan3063">할까요?</tspan></text>
<text
           y="-76.44709"
           x="66.445404"
           id="text3077"
           transform="scale(1,-1)"><tspan
             id="tspan3079"
             sodipodi:role="line"
             y="-76.44709"
             x="66.445404"
             style="font-size:6.4000001px;font-variant:normal;font-weight:normal;line-height:125%;writing-mode:lr-tb;fill:#000000;fill-opacity:1;fill-rule:nonzero;stroke:none;font-family:Times;-inkscape-font-specification:Times-Roman">다음에 </tspan><tspan
             id="tspan3081"
             sodipodi:role="line"
             y="-68.18425"
             x="66.445404"
             style="font-size:6.4000001px;font-variant:normal;font-weight:normal;line-height:125%;writing-mode:lr-tb;fill:#000000;fill-opacity:1;fill-rule:nonzero;stroke:none;font-family:Times;-inkscape-font-specification:Times-Roman">무엇을 </tspan><tspan
             id="tspan3083"
             sodipodi:role="line"
             y="-59.921402"
             x="66.445404"
             style="font-size:6.4000001px;font-variant:normal;font-weight:normal;line-height:125%;writing-mode:lr-tb;fill:#000000;fill-opacity:1;fill-rule:nonzero;stroke:none;font-family:Times;-inkscape-font-specification:Times-Roman">할까요?</tspan></text>
<text
           transform="scale(1,-1)"
           id="text3085"
           x="66.445404"
           y="-76.44709"><tspan
             style="font-size:6.4000001px;font-variant:normal;font-weight:normal;line-height:125%;writing-mode:lr-tb;fill:#000000;fill-opacity:1;fill-rule:nonzero;stroke:none;font-family:Times;-inkscape-font-specification:Times-Roman"
             x="66.445404"
             y="-76.44709"
             sodipodi:role="line"
             id="tspan3087">다음에 </tspan><tspan
             style="font-size:6.4000001px;font-variant:normal;font-weight:normal;line-height:125%;writing-mode:lr-tb;fill:#000000;fill-opacity:1;fill-rule:nonzero;stroke:none;font-family:Times;-inkscape-font-specification:Times-Roman"
             x="66.445404"
             y="-68.18425"
             sodipodi:role="line"
             id="tspan3089">무엇을 </tspan><tspan
             style="font-size:6.4000001px;font-variant:normal;font-weight:normal;line-height:125%;writing-mode:lr-tb;fill:#000000;fill-opacity:1;fill-rule:nonzero;stroke:none;font-family:Times;-inkscape-font-specification:Times-Roman"
             x="66.445404"
             y="-59.921402"
             sodipodi:role="line"
             id="tspan3091">할까요?</tspan></text>
<text
           y="-76.44709"
           x="117.64537"
           id="text3093"
           transform="scale(1,-1)"><tspan
             id="tspan3095"
             sodipodi:role="line"
             y="-76.44709"
             x="117.64537"
             style="font-size:6.4000001px;font-variant:normal;font-weight:normal;line-height:125%;writing-mode:lr-tb;fill:#000000;fill-opacity:1;fill-rule:nonzero;stroke:none;font-family:Times;-inkscape-font-specification:Times-Roman">다음에 </tspan><tspan
             id="tspan3097"
             sodipodi:role="line"
             y="-68.18425"
             x="117.64537"
             style="font-size:6.4000001px;font-variant:normal;font-weight:normal;line-height:125%;writing-mode:lr-tb;fill:#000000;fill-opacity:1;fill-rule:nonzero;stroke:none;font-family:Times;-inkscape-font-specification:Times-Roman">무엇을 </tspan><tspan
             id="tspan3099"
             sodipodi:role="line"
             y="-59.921402"
             x="117.64537"
             style="font-size:6.4000001px;font-variant:normal;font-weight:normal;line-height:125%;writing-mode:lr-tb;fill:#000000;fill-opacity:1;fill-rule:nonzero;stroke:none;font-family:Times;-inkscape-font-specification:Times-Roman">할까요?</tspan></text>
<text
           transform="scale(1,-1)"
           id="text3101"
           x="117.64537"
           y="-31.647131"><tspan
             style="font-size:6.4000001px;font-variant:normal;font-weight:normal;line-height:125%;writing-mode:lr-tb;fill:#000000;fill-opacity:1;fill-rule:nonzero;stroke:none;font-family:Times;-inkscape-font-specification:Times-Roman"
             x="117.64537"
             y="-31.647131"
             sodipodi:role="line"
             id="tspan3103">다음에 </tspan><tspan
             style="font-size:6.4000001px;font-variant:normal;font-weight:normal;line-height:125%;writing-mode:lr-tb;fill:#000000;fill-opacity:1;fill-rule:nonzero;stroke:none;font-family:Times;-inkscape-font-specification:Times-Roman"
             x="117.64537"
             y="-23.384287"
             sodipodi:role="line"
             id="tspan3105">무엇을 </tspan><tspan
             style="font-size:6.4000001px;font-variant:normal;font-weight:normal;line-height:125%;writing-mode:lr-tb;fill:#000000;fill-opacity:1;fill-rule:nonzero;stroke:none;font-family:Times;-inkscape-font-specification:Times-Roman"
             x="117.64537"
             y="-15.121443"
             sodipodi:role="line"
             id="tspan3107">할까요?</tspan></text>
<text
           y="-31.647131"
           x="66.445412"
           id="text3109"
           transform="scale(1,-1)"><tspan
             id="tspan3111"
             sodipodi:role="line"
             y="-31.647131"
             x="66.445412"
             style="font-size:6.4000001px;font-variant:normal;font-weight:normal;line-height:125%;writing-mode:lr-tb;fill:#000000;fill-opacity:1;fill-rule:nonzero;stroke:none;font-family:Times;-inkscape-font-specification:Times-Roman">다음에 </tspan><tspan
             id="tspan3113"
             sodipodi:role="line"
             y="-23.384287"
             x="66.445412"
             style="font-size:6.4000001px;font-variant:normal;font-weight:normal;line-height:125%;writing-mode:lr-tb;fill:#000000;fill-opacity:1;fill-rule:nonzero;stroke:none;font-family:Times;-inkscape-font-specification:Times-Roman">무엇을 </tspan><tspan
             id="tspan3115"
             sodipodi:role="line"
             y="-15.121444"
             x="66.445412"
             style="font-size:6.4000001px;font-variant:normal;font-weight:normal;line-height:125%;writing-mode:lr-tb;fill:#000000;fill-opacity:1;fill-rule:nonzero;stroke:none;font-family:Times;-inkscape-font-specification:Times-Roman">할까요?</tspan></text>
<text
           transform="scale(1,-1)"
           id="text3117"
           x="16.84544"
           y="-31.647131"><tspan
             style="font-size:6.4000001px;font-variant:normal;font-weight:normal;line-height:125%;writing-mode:lr-tb;fill:#000000;fill-opacity:1;fill-rule:nonzero;stroke:none;font-family:Times;-inkscape-font-specification:Times-Roman"
             x="16.84544"
             y="-31.647131"
             sodipodi:role="line"
             id="tspan3119">다음에 </tspan><tspan
             style="font-size:6.4000001px;font-variant:normal;font-weight:normal;line-height:125%;writing-mode:lr-tb;fill:#000000;fill-opacity:1;fill-rule:nonzero;stroke:none;font-family:Times;-inkscape-font-specification:Times-Roman"
             x="16.84544"
             y="-23.384287"
             sodipodi:role="line"
             id="tspan3121">무엇을 </tspan><tspan
             style="font-size:6.4000001px;font-variant:normal;font-weight:normal;line-height:125%;writing-mode:lr-tb;fill:#000000;fill-opacity:1;fill-rule:nonzero;stroke:none;font-family:Times;-inkscape-font-specification:Times-Roman"
             x="16.84544"
             y="-15.121444"
             sodipodi:role="line"
             id="tspan3123">할까요?</tspan></text>
<text
           y="-28.44713"
           x="170.43253"
           id="text3125"
           transform="scale(1,-1)"><tspan
             id="tspan3131"
             sodipodi:role="line"
             y="-28.44713"
             x="170.43253"
             style="font-size:6.4000001px;font-variant:normal;font-weight:normal;text-align:center;line-height:125%;writing-mode:lr-tb;text-anchor:middle;fill:#000000;fill-opacity:1;fill-rule:nonzero;stroke:none;font-family:Times;-inkscape-font-specification:Times-Roman">개인 휴대</tspan><tspan
             sodipodi:role="line"
             y="-20.184286"
             x="170.43253"
             style="font-size:6.4000001px;font-variant:normal;font-weight:normal;text-align:center;line-height:125%;writing-mode:lr-tb;text-anchor:middle;fill:#000000;fill-opacity:1;fill-rule:nonzero;stroke:none;font-family:Times;-inkscape-font-specification:Times-Roman"
             id="tspan3138">정보 단말</tspan><tspan
             sodipodi:role="line"
             y="-12.184286"
             x="170.43253"
             style="font-size:6.4000001px;font-variant:normal;font-weight:normal;text-align:center;line-height:125%;writing-mode:lr-tb;text-anchor:middle;fill:#000000;fill-opacity:1;fill-rule:nonzero;stroke:none;font-family:Times;-inkscape-font-specification:Times-Roman"
             id="tspan3140">(PDA)</tspan></text>
</g><path
         d="m 169,412 0,0 c -39.762,0 -72,-32.238 -72,-72 l 0,-171 c 0,-39.762 32.238,-72 72,-72 l 216,0 c 39.762,0 72,32.238 72,72 l 0,171 c 0,39.762 -32.238,72 -72,72 l -216,0 z"
         style="fill:none;stroke:#000000;stroke-opacity:1;stroke-width:4.5;stroke-linecap:butt;stroke-linejoin:miter;stroke-miterlimit:10;stroke-dasharray:none"
         id="path64" /><g
         id="g66"
         transform="scale(10,10)"><text
           transform="matrix(1,0,0,-1,14.2,12.4)"
           id="text68"><tspan
             style="font-size:12px;font-variant:normal;font-weight:normal;writing-mode:lr-tb;fill:#000000;fill-opacity:1;fill-rule:nonzero;stroke:none;font-family:Times;-inkscape-font-specification:Times-Roman"
             sodipodi:role="line"
             id="tspan72"
             x="0"
             y="0" /></text>
</g><path
         d="m 1845.4,502 c 0,-83.504 -67.7,-151.199 -151.2,-151.199 -83.5,0 -151.2,67.695 -151.2,151.199 0,83.504 67.7,151.199 151.2,151.199 83.5,0 151.2,-67.695 151.2,-151.199 z"
         style="fill:none;stroke:#000000;stroke-opacity:1;stroke-width:4.5;stroke-linecap:butt;stroke-linejoin:miter;stroke-miterlimit:10;stroke-dasharray:none"
         id="path74" /><path
         d="m 1739.2,502 c 0,-24.852 -20.15,-45 -45,-45 -24.85,0 -45,20.148 -45,45 0,24.852 20.15,45 45,45 24.85,0 45,-20.148 45,-45"
         style="fill:#000000;fill-opacity:1;fill-rule:evenodd;stroke:none"
         id="path76" /><path
         d="m 1739.2,502 c 0,-24.852 -20.15,-45 -45,-45 -24.85,0 -45,20.148 -45,45 0,24.852 20.15,45 45,45 24.85,0 45,-20.148 45,-45 z"
         style="fill:none;stroke:#000000;stroke-opacity:1;stroke-width:4.5;stroke-linecap:butt;stroke-linejoin:miter;stroke-miterlimit:10;stroke-dasharray:none"
         id="path78" /><path
         d="m 115,952 0,0 C 55.3555,952 7,903.645 7,844 L 7,115 C 7,55.3555 55.3555,7 115,7 l 1674,0 c 59.64,0 108,48.3555 108,108 l 0,729 c 0,59.645 -48.36,108 -108,108 l -1674,0 z"
         style="fill:none;stroke:#000000;stroke-opacity:1;stroke-width:4.5;stroke-linecap:butt;stroke-linejoin:miter;stroke-miterlimit:10;stroke-dasharray:none"
         id="path80" /><path
         d="m 664,862 0,0 c -39.762,0 -72,-32.238 -72,-72 l 0,-171 c 0,-39.762 32.238,-72 72,-72 l 216,0 c 39.762,0 72,32.238 72,72 l 0,171 c 0,39.762 -32.238,72 -72,72 l -216,0 z"
         style="fill:none;stroke:#000000;stroke-opacity:1;stroke-width:4.5;stroke-linecap:butt;stroke-linejoin:miter;stroke-miterlimit:10;stroke-dasharray:none"
         id="path82" /></g><text
       xml:space="preserve"
       style="font-size:40px;font-style:normal;font-weight:normal;line-height:125%;letter-spacing:0px;word-spacing:0px;fill:#000000;fill-opacity:1;stroke:none;font-family:Sans"
       x="-31.083796"
       y="21.457756"
       id="text3069"
       sodipodi:linespacing="125%"
       transform="matrix(0.8,0,0,-0.8,0,96)"><tspan
         sodipodi:role="line"
         id="tspan3071"></tspan></text>
</g></svg>