<?xml version="1.0" encoding="UTF-8" standalone="no"?>
<!-- Created with Inkscape (http://www.inkscape.org/) -->

<svg
   xmlns:dc="http://purl.org/dc/elements/1.1/"
   xmlns:cc="http://creativecommons.org/ns#"
   xmlns:rdf="http://www.w3.org/1999/02/22-rdf-syntax-ns#"
   xmlns:svg="http://www.w3.org/2000/svg"
   xmlns="http://www.w3.org/2000/svg"
   xmlns:sodipodi="http://sodipodi.sourceforge.net/DTD/sodipodi-0.dtd"
   xmlns:inkscape="http://www.inkscape.org/namespaces/inkscape"
   id="svg2"
   version="1.1"
   inkscape:version="0.48.4 r9939"
   width="238.75"
   height="120"
   xml:space="preserve"
   sodipodi:docname="pda2.eps"><metadata
     id="metadata8"><rdf:RDF><cc:Work
         rdf:about=""><dc:format>image/svg+xml</dc:format><dc:type
           rdf:resource="http://purl.org/dc/dcmitype/StillImage" /><dc:title></dc:title></cc:Work></rdf:RDF></metadata><defs
     id="defs6" /><sodipodi:namedview
     pagecolor="#ffffff"
     bordercolor="#666666"
     borderopacity="1"
     objecttolerance="10"
     gridtolerance="10"
     guidetolerance="10"
     inkscape:pageopacity="0"
     inkscape:pageshadow="2"
     inkscape:window-width="1855"
     inkscape:window-height="1056"
     id="namedview4"
     showgrid="false"
     inkscape:zoom="1.5120419"
     inkscape:cx="119.375"
     inkscape:cy="60"
     inkscape:window-x="1985"
     inkscape:window-y="24"
     inkscape:window-maximized="1"
     inkscape:current-layer="g10" /><g
     id="g10"
     inkscape:groupmode="layer"
     inkscape:label="ink_ext_XXXXXX"
     transform="matrix(1.25,0,0,-1.25,0,120)"><g
       id="g12"
       transform="scale(0.1,0.1)"><g
         id="g14"
         transform="scale(10,10)"><text
           transform="matrix(1,0,0,-1,63.7,12.4)"
           id="text16"><tspan
             style="font-size:12px;font-variant:normal;font-weight:normal;writing-mode:lr-tb;fill:#000000;fill-opacity:1;fill-rule:nonzero;stroke:none;font-family:Times;-inkscape-font-specification:Times-Roman"
             sodipodi:role="line"
             id="tspan18"
             x="0"
             y="0" /></text>
</g><path
         d="m 1739.2,502 c 0,-24.852 -20.15,-45 -45,-45 -24.85,0 -45,20.148 -45,45 0,24.852 20.15,45 45,45 24.85,0 45,-20.148 45,-45"
         style="fill:#000000;fill-opacity:1;fill-rule:evenodd;stroke:none"
         id="path20" /><path
         d="m 1739.2,502 c 0,-24.852 -20.15,-45 -45,-45 -24.85,0 -45,20.148 -45,45 0,24.852 20.15,45 45,45 24.85,0 45,-20.148 45,-45 z"
         style="fill:none;stroke:#000000;stroke-opacity:1;stroke-width:4.5;stroke-linecap:butt;stroke-linejoin:miter;stroke-miterlimit:10;stroke-dasharray:none"
         id="path22" /><path
         d="m 115,952 0,0 C 55.3555,952 7,903.645 7,844 L 7,115 C 7,55.3555 55.3555,7 115,7 l 1674,0 c 59.64,0 108,48.3555 108,108 l 0,729 c 0,59.645 -48.36,108 -108,108 l -1674,0 z"
         style="fill:none;stroke:#000000;stroke-opacity:1;stroke-width:4.5;stroke-linecap:butt;stroke-linejoin:miter;stroke-miterlimit:10;stroke-dasharray:none"
         id="path24" /><path
         d="m 169,862 0,0 c -39.762,0 -72,-32.238 -72,-72 l 0,-171 c 0,-39.762 32.238,-72 72,-72 l 216,0 c 39.762,0 72,32.238 72,72 l 0,171 c 0,39.762 -32.238,72 -72,72 l -216,0 z"
         style="fill:none;stroke:#000000;stroke-opacity:1;stroke-width:4.5;stroke-linecap:butt;stroke-linejoin:miter;stroke-miterlimit:10;stroke-dasharray:none"
         id="path26" /><path
         d="m 169,412 0,0 c -39.762,0 -72,-32.238 -72,-72 l 0,-171 c 0,-39.762 32.238,-72 72,-72 l 216,0 c 39.762,0 72,32.238 72,72 l 0,171 c 0,39.762 -32.238,72 -72,72 l -216,0 z"
         style="fill:none;stroke:#000000;stroke-opacity:1;stroke-width:4.5;stroke-linecap:butt;stroke-linejoin:miter;stroke-miterlimit:10;stroke-dasharray:none"
         id="path28" /><path
         d="m 664,862 0,0 c -39.762,0 -72,-32.238 -72,-72 l 0,-171 c 0,-39.762 32.238,-72 72,-72 l 216,0 c 39.762,0 72,32.238 72,72 l 0,171 c 0,39.762 -32.238,72 -72,72 l -216,0 z"
         style="fill:none;stroke:#000000;stroke-opacity:1;stroke-width:4.5;stroke-linecap:butt;stroke-linejoin:miter;stroke-miterlimit:10;stroke-dasharray:none"
         id="path30" /><path
         d="m 1159,862 0,0 c -39.76,0 -72,-32.238 -72,-72 l 0,-171 c 0,-39.762 32.24,-72 72,-72 l 216,0 c 39.76,0 72,32.238 72,72 l 0,171 c 0,39.762 -32.24,72 -72,72 l -216,0 z"
         style="fill:none;stroke:#000000;stroke-opacity:1;stroke-width:4.5;stroke-linecap:butt;stroke-linejoin:miter;stroke-miterlimit:10;stroke-dasharray:none"
         id="path32" /><path
         d="m 1159,412 0,0 c -39.76,0 -72,-32.238 -72,-72 l 0,-171 c 0,-39.762 32.24,-72 72,-72 l 216,0 c 39.76,0 72,32.238 72,72 l 0,171 c 0,39.762 -32.24,72 -72,72 l -216,0 z"
         style="fill:none;stroke:#000000;stroke-opacity:1;stroke-width:4.5;stroke-linecap:butt;stroke-linejoin:miter;stroke-miterlimit:10;stroke-dasharray:none"
         id="path34" /><path
         d="m 664,412 0,0 c -39.762,0 -72,-32.238 -72,-72 l 0,-171 c 0,-39.762 32.238,-72 72,-72 l 216,0 c 39.762,0 72,32.238 72,72 l 0,171 c 0,39.762 -32.238,72 -72,72 l -216,0 z"
         style="fill:none;stroke:#000000;stroke-opacity:1;stroke-width:4.5;stroke-linecap:butt;stroke-linejoin:miter;stroke-miterlimit:10;stroke-dasharray:none"
         id="path36" /><g
         id="g38"
         transform="scale(10,10)"><text
           transform="matrix(1,0,0,-1,158.2,18.7)"
           id="text40"><tspan
             style="font-size:12px;font-variant:normal;font-weight:normal;writing-mode:lr-tb;fill:#000000;fill-opacity:1;fill-rule:nonzero;stroke:none;font-family:Times;-inkscape-font-specification:Times-Roman"
             sodipodi:role="line"
             id="tspan56"
             x="0"
             y="0" /></text>
</g><path
         d="m 1845.4,502 c 0,-83.504 -67.7,-151.199 -151.2,-151.199 -83.5,0 -151.2,67.695 -151.2,151.199 0,83.504 67.7,151.199 151.2,151.199 83.5,0 151.2,-67.695 151.2,-151.199 z"
         style="fill:none;stroke:#000000;stroke-opacity:1;stroke-width:4.5;stroke-linecap:butt;stroke-linejoin:miter;stroke-miterlimit:10;stroke-dasharray:none"
         id="path58" /></g><text
       xml:space="preserve"
       style="font-size:32px;font-style:normal;font-weight:normal;line-height:125%;letter-spacing:0px;word-spacing:0px;fill:#000000;fill-opacity:1;stroke:none;font-family:Sans"
       x="27.154713"
       y="-78.304703"
       id="text3070"
       sodipodi:linespacing="125%"
       transform="scale(1,-1)"><tspan
         sodipodi:role="line"
         id="tspan3072"
         x="27.154713"
         y="-78.304703"
         style="font-size:8px;text-align:center;text-anchor:middle">다음에</tspan><tspan
         sodipodi:role="line"
         x="27.154713"
         y="-68.304703"
         id="tspan3074"
         style="font-size:8px;text-align:center;text-anchor:middle">무엇을</tspan><tspan
         sodipodi:role="line"
         x="27.154713"
         y="-58.304707"
         id="tspan3076"
         style="font-size:8px;text-align:center;text-anchor:middle">할까요?</tspan></text>
<text
       transform="scale(1,-1)"
       sodipodi:linespacing="125%"
       id="text3078"
       y="-33.504745"
       x="27.154713"
       style="font-size:32px;font-style:normal;font-weight:normal;line-height:125%;letter-spacing:0px;word-spacing:0px;fill:#000000;fill-opacity:1;stroke:none;font-family:Sans"
       xml:space="preserve"><tspan
         style="font-size:8px;text-align:center;text-anchor:middle"
         y="-33.504745"
         x="27.154713"
         id="tspan3080"
         sodipodi:role="line">다음에</tspan><tspan
         style="font-size:8px;text-align:center;text-anchor:middle"
         id="tspan3082"
         y="-23.504745"
         x="27.154713"
         sodipodi:role="line">무엇을</tspan><tspan
         style="font-size:8px;text-align:center;text-anchor:middle"
         id="tspan3084"
         y="-13.504745"
         x="27.154713"
         sodipodi:role="line">할까요?</tspan></text>
<text
       xml:space="preserve"
       style="font-size:32px;font-style:normal;font-weight:normal;line-height:125%;letter-spacing:0px;word-spacing:0px;fill:#000000;fill-opacity:1;stroke:none;font-family:Sans"
       x="76.754677"
       y="-33.504745"
       id="text3086"
       sodipodi:linespacing="125%"
       transform="scale(1,-1)"><tspan
         sodipodi:role="line"
         id="tspan3088"
         x="76.754677"
         y="-33.504745"
         style="font-size:8px;text-align:center;text-anchor:middle">다음에</tspan><tspan
         sodipodi:role="line"
         x="76.754677"
         y="-23.504745"
         id="tspan3090"
         style="font-size:8px;text-align:center;text-anchor:middle">무엇을</tspan><tspan
         sodipodi:role="line"
         x="76.754677"
         y="-13.504745"
         id="tspan3092"
         style="font-size:8px;text-align:center;text-anchor:middle">할까요?</tspan></text>
<text
       transform="scale(1,-1)"
       sodipodi:linespacing="125%"
       id="text3094"
       y="-33.504745"
       x="126.35464"
       style="font-size:32px;font-style:normal;font-weight:normal;line-height:125%;letter-spacing:0px;word-spacing:0px;fill:#000000;fill-opacity:1;stroke:none;font-family:Sans"
       xml:space="preserve"><tspan
         style="font-size:8px;text-align:center;text-anchor:middle"
         y="-33.504745"
         x="126.35464"
         id="tspan3096"
         sodipodi:role="line">다음에</tspan><tspan
         style="font-size:8px;text-align:center;text-anchor:middle"
         id="tspan3098"
         y="-23.504745"
         x="126.35464"
         sodipodi:role="line">무엇을</tspan><tspan
         style="font-size:8px;text-align:center;text-anchor:middle"
         id="tspan3100"
         y="-13.504745"
         x="126.35464"
         sodipodi:role="line">할까요?</tspan></text>
<text
       xml:space="preserve"
       style="font-size:32px;font-style:normal;font-weight:normal;line-height:125%;letter-spacing:0px;word-spacing:0px;fill:#000000;fill-opacity:1;stroke:none;font-family:Sans"
       x="126.35464"
       y="-78.304703"
       id="text3102"
       sodipodi:linespacing="125%"
       transform="scale(1,-1)"><tspan
         sodipodi:role="line"
         id="tspan3104"
         x="126.35464"
         y="-78.304703"
         style="font-size:8px;text-align:center;text-anchor:middle">다음에</tspan><tspan
         sodipodi:role="line"
         x="126.35464"
         y="-68.304703"
         id="tspan3106"
         style="font-size:8px;text-align:center;text-anchor:middle">무엇을</tspan><tspan
         sodipodi:role="line"
         x="126.35464"
         y="-58.304703"
         id="tspan3108"
         style="font-size:8px;text-align:center;text-anchor:middle">할까요?</tspan></text>
<text
       transform="scale(1,-1)"
       sodipodi:linespacing="125%"
       id="text3110"
       y="-78.304703"
       x="76.754662"
       style="font-size:32px;font-style:normal;font-weight:normal;line-height:125%;letter-spacing:0px;word-spacing:0px;fill:#000000;fill-opacity:1;stroke:none;font-family:Sans"
       xml:space="preserve"><tspan
         style="font-size:8px;text-align:center;text-anchor:middle"
         y="-78.304703"
         x="76.754662"
         id="tspan3112"
         sodipodi:role="line">다음에</tspan><tspan
         style="font-size:8px;text-align:center;text-anchor:middle"
         id="tspan3114"
         y="-68.304703"
         x="76.754662"
         sodipodi:role="line">무엇을</tspan><tspan
         style="font-size:8px;text-align:center;text-anchor:middle"
         id="tspan3116"
         y="-58.304703"
         x="76.754662"
         sodipodi:role="line">할까요?</tspan></text>
<text
       xml:space="preserve"
       style="font-size:32px;font-style:normal;font-weight:normal;line-height:125%;letter-spacing:0px;word-spacing:0px;fill:#000000;fill-opacity:1;stroke:none;font-family:Sans"
       x="169.55479"
       y="-25.504744"
       id="text3118"
       sodipodi:linespacing="125%"
       transform="scale(1,-1)"><tspan
         sodipodi:role="line"
         x="169.55479"
         y="-25.504744"
         id="tspan3124"
         style="font-size:8px;text-align:center;text-anchor:middle">개인 휴대</tspan><tspan
         sodipodi:role="line"
         x="169.55479"
         y="-15.504744"
         style="font-size:8px;text-align:center;text-anchor:middle"
         id="tspan3131">정보 단말</tspan><tspan
         sodipodi:role="line"
         x="169.55479"
         y="-5.5307508"
         style="font-size:8px;text-align:center;text-anchor:middle"
         id="tspan3133">(PDA)</tspan></text>
</g></svg>