<?xml version="1.0" encoding="UTF-8" standalone="no"?>
<!-- Created with Inkscape (http://www.inkscape.org/) -->

<svg
   xmlns:dc="http://purl.org/dc/elements/1.1/"
   xmlns:cc="http://creativecommons.org/ns#"
   xmlns:rdf="http://www.w3.org/1999/02/22-rdf-syntax-ns#"
   xmlns:svg="http://www.w3.org/2000/svg"
   xmlns="http://www.w3.org/2000/svg"
   xmlns:sodipodi="http://sodipodi.sourceforge.net/DTD/sodipodi-0.dtd"
   xmlns:inkscape="http://www.inkscape.org/namespaces/inkscape"
   id="svg2"
   version="1.1"
   inkscape:version="0.48.4 r9939"
   width="1221.25"
   height="916.25"
   xml:space="preserve"
   sodipodi:docname="soa.eps"><metadata
     id="metadata8"><rdf:RDF><cc:Work
         rdf:about=""><dc:format>image/svg+xml</dc:format><dc:type
           rdf:resource="http://purl.org/dc/dcmitype/StillImage" /><dc:title></dc:title></cc:Work></rdf:RDF></metadata><defs
     id="defs6" /><sodipodi:namedview
     pagecolor="#ffffff"
     bordercolor="#666666"
     borderopacity="1"
     objecttolerance="10"
     gridtolerance="10"
     guidetolerance="10"
     inkscape:pageopacity="0"
     inkscape:pageshadow="2"
     inkscape:window-width="1855"
     inkscape:window-height="1056"
     id="namedview4"
     showgrid="false"
     inkscape:zoom="0.72852257"
     inkscape:cx="565.26397"
     inkscape:cy="406.39"
     inkscape:window-x="1985"
     inkscape:window-y="24"
     inkscape:window-maximized="1"
     inkscape:current-layer="g10" /><g
     id="g10"
     inkscape:groupmode="layer"
     inkscape:label="ink_ext_XXXXXX"
     transform="matrix(1.25,0,0,-1.25,0,916.25)"><g
       id="g12"
       transform="scale(0.1,0.1)"><path
         d="M 2602.73,5529.18 1809.41,5031.4 1369.69,4462.03 666.172,5087.42 5.94141,5343.36 364.449,6227.62 l 31.68,727.53 925.121,-78.86 679.77,193.71 213.24,-933.01 388.47,-607.81 z"
         style="fill:#ffffff;fill-opacity:1;fill-rule:nonzero;stroke:none"
         id="path14" /><g
         id="g16"
         transform="scale(0.983894,-1.01611)"><path
           d="m 2645.34,-5441.54 -806.31,489.88 -446.92,560.36 -715.033,-615.48 -671.04231,-251.88 364.38031,-870.25 32.202,-716.01 940.263,77.62 690.9,-190.64 216.72,918.23 394.84,598.17 z"
           style="fill:none;stroke:#000000;stroke-opacity:1;stroke-width:11.8744;stroke-linecap:butt;stroke-linejoin:miter;stroke-miterlimit:4;stroke-dasharray:none"
           id="path18" /></g><g
         id="g20"
         transform="scale(10,10)"><text
           transform="matrix(1,0,0,-1,86.5461,622.467)"
           id="text22"
           x="44.341751"
           y="0"><tspan
             style="font-size:32px;font-variant:normal;writing-mode:lr-tb;fill:#000000;fill-opacity:1;fill-rule:nonzero;stroke:none;font-family:f-0;-inkscape-font-specification:f-0-0;text-anchor:middle;text-align:center"
             sodipodi:role="line"
             id="tspan28"
             x="0"
             y="0">자동차 </tspan><tspan
             style="font-size:32px;font-variant:normal;writing-mode:lr-tb;fill:#000000;fill-opacity:1;fill-rule:nonzero;stroke:none;font-family:f-0;-inkscape-font-specification:f-0-0;text-anchor:middle;text-align:center"
             sodipodi:role="line"
             x="0"
             y="40"
             id="tspan3086">렌탈</tspan><tspan
             style="font-size:32px;font-variant:normal;writing-mode:lr-tb;fill:#000000;fill-opacity:1;fill-rule:nonzero;stroke:none;font-family:f-0;-inkscape-font-specification:f-0-0;text-anchor:middle;text-align:center"
             sodipodi:role="line"
             x="0"
             y="80"
             id="tspan3088">서비스</tspan></text>
</g><path
         d="m 6062.7,6387.81 -350.94,-907.03 9.53,-747.27 -943.75,64.42 -685.2,-240.28 -232.34,946.84 -433.01,598.75 800.2,520.78 417.54,610.31 726.87,-624.96 691.1,-221.56 z"
         style="fill:#ffffff;fill-opacity:1;fill-rule:nonzero;stroke:none"
         id="path30" /><g
         id="g32"
         transform="scale(0.983894,-1.01611)"><path
           d="m 6161.94,-6286.56 -356.69,892.66 9.7,735.41 -959.21,-63.39 -696.41,236.46 -236.14,-931.82 -440.1,-589.26 813.29,-512.53 424.38,-600.64 738.77,615.06 702.41,218.05 z"
           style="fill:none;stroke:#000000;stroke-opacity:1;stroke-width:11.8744;stroke-linecap:butt;stroke-linejoin:miter;stroke-miterlimit:4;stroke-dasharray:none"
           id="path34" /></g><path
         d="m 9771.8,6315.08 -444.73,-862.74 -68.32,-744.61 -931.95,170.2 -706.84,-162.97 -131.25,967.93 -368.51,643.87 850.82,428.04 479.06,560.9 657.11,-703.4 664.61,-297.22 z"
         style="fill:#ffffff;fill-opacity:1;fill-rule:nonzero;stroke:none"
         id="path36" /><g
         id="g38"
         transform="scale(0.983894,-1.01611)"><path
           d="m 9931.75,-6214.98 -452.01,849.06 -69.43,732.81 -947.22,-167.5 -718.39,160.38 -133.41,-952.58 -374.54,-633.67 864.74,-421.25 486.91,-552.01 667.86,692.25 675.49,292.51 z"
           style="fill:none;stroke:#000000;stroke-opacity:1;stroke-width:11.8744;stroke-linecap:butt;stroke-linejoin:miter;stroke-miterlimit:4;stroke-dasharray:none"
           id="path40" /></g><g
         id="g42"
         transform="scale(10,10)" /><path
         d="m 4034.69,8.01172 3201.29,0 0,1105.65998 -3201.29,0 0,-1105.65998 z"
         style="fill:#ffffff;fill-opacity:1;fill-rule:nonzero;stroke:none"
         id="path58" /><path
         d="m 4034.69,8.00781 3201.29,0 0,1105.65999 -3201.29,0 0,-1105.65999 z"
         style="fill:none;stroke:#000000;stroke-opacity:1;stroke-width:16;stroke-linecap:butt;stroke-linejoin:miter;stroke-miterlimit:4;stroke-dasharray:none"
         id="path60" /><g
         id="g62"
         transform="scale(10,10)"><text
           transform="scale(1,-1)"
           id="text64"
           x="544.49323"
           y="-66.367996"><tspan
             style="font-size:32px;font-variant:normal;text-align:center;writing-mode:lr-tb;text-anchor:middle;fill:#000000;fill-opacity:1;fill-rule:nonzero;stroke:none;font-family:f-0;-inkscape-font-specification:f-0-0"
             sodipodi:role="line"
             id="tspan68"
             x="544.49323"
             y="-66.367996">여행</tspan><tspan
             style="font-size:32px;font-variant:normal;text-align:center;writing-mode:lr-tb;text-anchor:middle;fill:#000000;fill-opacity:1;fill-rule:nonzero;stroke:none;font-family:f-0;-inkscape-font-specification:f-0-0"
             sodipodi:role="line"
             x="544.49323"
             y="-26.367996"
             id="tspan3092">응용프로그램</tspan></text>
<text
           y="-604.81683"
           x="851.96484"
           id="text3102"
           transform="scale(1,-1)"><tspan
             y="-604.81683"
             x="851.96484"
             id="tspan3104"
             sodipodi:role="line"
             style="font-size:32px;font-variant:normal;text-align:center;writing-mode:lr-tb;text-anchor:middle;fill:#000000;fill-opacity:1;fill-rule:nonzero;stroke:none;font-family:f-0;-inkscape-font-specification:f-0-0">항공</tspan><tspan
             id="tspan3106"
             y="-564.81683"
             x="851.96484"
             sodipodi:role="line"
             style="font-size:32px;font-variant:normal;text-align:center;writing-mode:lr-tb;text-anchor:middle;fill:#000000;fill-opacity:1;fill-rule:nonzero;stroke:none;font-family:f-0;-inkscape-font-specification:f-0-0">예약 서비스</tspan></text>
<text
           transform="scale(1,-1)"
           id="text3108"
           x="476.41025"
           y="-603.71875"><tspan
             style="font-size:32px;font-variant:normal;text-align:center;writing-mode:lr-tb;text-anchor:middle;fill:#000000;fill-opacity:1;fill-rule:nonzero;stroke:none;font-family:f-0;-inkscape-font-specification:f-0-0"
             sodipodi:role="line"
             x="476.41025"
             y="-603.71875"
             id="tspan3112">호텔</tspan><tspan
             style="font-size:32px;font-variant:normal;text-align:center;writing-mode:lr-tb;text-anchor:middle;fill:#000000;fill-opacity:1;fill-rule:nonzero;stroke:none;font-family:f-0;-inkscape-font-specification:f-0-0"
             sodipodi:role="line"
             x="476.41025"
             y="-563.71875"
             id="tspan3118">예약 서비스</tspan></text>
</g><path
         d="M 1796.91,5009.92 4562.58,1112.93"
         style="fill:none;stroke:#000000;stroke-opacity:1;stroke-width:22.3967;stroke-linecap:butt;stroke-linejoin:miter;stroke-miterlimit:4;stroke-dasharray:none"
         id="path70" /><path
         d="m 1707.66,2810.7 2185.62,0 0,758.563 -2185.62,0 0,-758.563 z"
         style="fill:#ffffff;fill-opacity:1;fill-rule:nonzero;stroke:none"
         id="path72" /><path
         d="m 1707.66,2810.7 2185.62,0 0,758.559 -2185.62,0 0,-758.559 z"
         style="fill:none;stroke:#000000;stroke-opacity:1;stroke-width:24;stroke-linecap:butt;stroke-linejoin:miter;stroke-miterlimit:4;stroke-dasharray:none"
         id="path74" /><g
         id="g76"
         transform="scale(10,10)"><text
           transform="matrix(1,0,0,-1,256.18,307.334)"
           id="text78"><tspan
             style="fill:#000000;fill-opacity:1;fill-rule:nonzero;stroke:none;font-family:f-0;font-variant:normal;font-size:32;writing-mode:lr;-inkscape-font-specification:f-0-0"
             x="0 21.888 41.184"
             y="0"
             sodipodi:role="line"
             id="tspan80">API</tspan></text>
</g><path
         d="M 5410.82,1126.02 4831.33,4791.09"
         style="fill:none;stroke:#000000;stroke-opacity:1;stroke-width:23.0221;stroke-linecap:butt;stroke-linejoin:miter;stroke-miterlimit:4;stroke-dasharray:none"
         id="path82" /><path
         d="m 4214.69,1968.63 2185.62,0 0,758.52 -2185.62,0 0,-758.52 z"
         style="fill:#ffffff;fill-opacity:1;fill-rule:nonzero;stroke:none"
         id="path84" /><path
         d="m 4214.69,1968.63 2185.62,0 0,758.52 -2185.62,0 0,-758.52 z"
         style="fill:none;stroke:#000000;stroke-opacity:1;stroke-width:24;stroke-linecap:butt;stroke-linejoin:miter;stroke-miterlimit:4;stroke-dasharray:none"
         id="path86" /><g
         id="g88"
         transform="scale(10,10)"><text
           transform="matrix(1,0,0,-1,506.882,223.124)"
           id="text90"><tspan
             style="fill:#000000;fill-opacity:1;fill-rule:nonzero;stroke:none;font-family:f-0;font-variant:normal;font-size:32;writing-mode:lr;-inkscape-font-specification:f-0-0"
             x="0 21.888 41.184"
             y="0"
             sodipodi:role="line"
             id="tspan92">API</tspan></text>
</g><path
         d="M 6413.4,1126.76 8328.52,4880.35"
         style="fill:none;stroke:#000000;stroke-opacity:1;stroke-width:24.4924;stroke-linecap:butt;stroke-linejoin:miter;stroke-miterlimit:4;stroke-dasharray:none"
         id="path94" /><path
         d="m 6593.12,3215.7 2185.63,0 0,758.52 -2185.63,0 0,-758.52 z"
         style="fill:#ffffff;fill-opacity:1;fill-rule:nonzero;stroke:none"
         id="path96" /><path
         d="m 6593.12,3215.7 2185.63,0 0,758.52 -2185.63,0 0,-758.52 z"
         style="fill:none;stroke:#000000;stroke-opacity:1;stroke-width:24;stroke-linecap:butt;stroke-linejoin:miter;stroke-miterlimit:4;stroke-dasharray:none"
         id="path98" /><g
         id="g100"
         transform="scale(10,10)"><text
           transform="matrix(1,0,0,-1,744.727,347.832)"
           id="text102"><tspan
             style="fill:#000000;fill-opacity:1;fill-rule:nonzero;stroke:none;font-family:f-0;font-variant:normal;font-size:32;writing-mode:lr;-inkscape-font-specification:f-0-0"
             x="0 21.888 41.184"
             y="0"
             sodipodi:role="line"
             id="tspan104">API</tspan></text>
</g></g></g></svg>